HIERARCHY
ROOT Pelvis
{
	OFFSET 0.000000 0.000000 0.000000
	CHANNELS 6 Xposition Yposition Zposition Xrotation Yrotation Zrotation
	JOINT LeftUpLeg_virtual
	{
		OFFSET 0.000000 0.000000 0.000000
		CHANNELS 3 Xrotation Yrotation Zrotation
		JOINT LeftUpLeg
		{
			OFFSET 18.735201 -5.666702 -4.541200
			CHANNELS 3 Xrotation Yrotation Zrotation
			JOINT LeftLeg
			{
				OFFSET -0.021200 -31.938179 0.493100
				CHANNELS 3 Xrotation Yrotation Zrotation
				JOINT LeftFoot
				{
					OFFSET 0.021200 -31.938179 -4.336299
					CHANNELS 3 Xrotation Yrotation Zrotation
					JOINT LeftToeBase
					{
						OFFSET 0.943001 -26.722000 15.023500
						CHANNELS 3 Xrotation Yrotation Zrotation
						End Site
						{
							OFFSET 0 0 0
						}
					}
				}
			}
		}
	}
	JOINT RightUpLeg_virtual
	{
		OFFSET 0.000000 0.000000 0.000000
		CHANNELS 3 Xrotation Yrotation Zrotation
		JOINT RightUpLeg
		{
			OFFSET -18.735201 -5.666702 -4.541200
			CHANNELS 3 Xrotation Yrotation Zrotation
			JOINT RightLeg
			{
				OFFSET 0.018946 -31.938133 0.493100
				CHANNELS 3 Xrotation Yrotation Zrotation
				JOINT RightFoot
				{
					OFFSET -0.018946 -31.938126 -4.336299
					CHANNELS 3 Xrotation Yrotation Zrotation
					JOINT RightToeBase
					{
						OFFSET -0.943001 -26.722004 15.023500
						CHANNELS 3 Xrotation Yrotation Zrotation
						End Site
						{
							OFFSET 0 0 0
						}
					}
				}
			}
		}
	}
	JOINT Hips_virtual
	{
		OFFSET 0.000000 0.000000 0.000000
		CHANNELS 3 Xrotation Yrotation Zrotation
		JOINT Hips
		{
			OFFSET -0.000000 -0.000000 -0.000000
			CHANNELS 3 Xrotation Yrotation Zrotation
			JOINT Spine
			{
				OFFSET 0.000000 10.199997 -0.299500
				CHANNELS 3 Xrotation Yrotation Zrotation
				JOINT Spine1
				{
					OFFSET 0.000000 11.900002 -1.516600
					CHANNELS 3 Xrotation Yrotation Zrotation
					JOINT Spine2
					{
						OFFSET 0.000000 13.600006 -2.842500
						CHANNELS 3 Xrotation Yrotation Zrotation
						JOINT Neck_virtual
						{
							OFFSET 0.000000 0.000000 0.000000
							CHANNELS 3 Xrotation Yrotation Zrotation
							JOINT Neck
							{
								OFFSET 0.000000 9.624100 -2.890100
								CHANNELS 3 Xrotation Yrotation Zrotation
								JOINT Head
								{
									OFFSET 0.000000 14.068802 -1.351900
									CHANNELS 3 Xrotation Yrotation Zrotation
									End Site
									{
										OFFSET 0 0 0
									}
								}
							}
						}
						JOINT LeftShoulder_virtual
						{
							OFFSET 0.000000 0.000000 0.000000
							CHANNELS 3 Xrotation Yrotation Zrotation
							JOINT LeftShoulder
							{
								OFFSET 15.263000 10.923401 -0.547700
								CHANNELS 3 Xrotation Yrotation Zrotation
								JOINT LeftArm
								{
									OFFSET 25.438599 -2.830597 -13.032500
									CHANNELS 3 Xrotation Yrotation Zrotation
									JOINT LeftForeArm
									{
										OFFSET 29.960503 0.000000 0.000000
										CHANNELS 3 Xrotation Yrotation Zrotation
										JOINT LeftHand
										{
											OFFSET 27.849251 0.000000 0.000000
											CHANNELS 3 Xrotation Yrotation Zrotation
											End Site
											{
												OFFSET 0 0 0
											}
										}
									}
								}
							}
						}
						JOINT RightShoulder_virtual
						{
							OFFSET 0.000000 0.000000 0.000000
							CHANNELS 3 Xrotation Yrotation Zrotation
							JOINT RightShoulder
							{
								OFFSET -15.263000 10.923401 -0.547700
								CHANNELS 3 Xrotation Yrotation Zrotation
								JOINT RightArm
								{
									OFFSET -25.438599 -2.830597 -13.032500
									CHANNELS 3 Xrotation Yrotation Zrotation
									JOINT RightForeArm
									{
										OFFSET -29.960503 0.000000 0.000000
										CHANNELS 3 Xrotation Yrotation Zrotation
										JOINT RightHand
										{
											OFFSET -27.849251 0.000000 0.000000
											CHANNELS 3 Xrotation Yrotation Zrotation
											End Site
											{
												OFFSET 0 0 0
											}
										}
									}
								}
							}
						}
					}
				}
			}
		}
	}
}
MOTION
Frames: 4
Frame Time: 0.03333333
-2.505406 73.154907 6.451946 0.000000 0.000000 0.000000 27.178841 -22.904688 9.474600 -82.342186 -6.596761 23.575585 65.551279 -4.838510 6.610827 -1.813082 1.604811 -22.217630 0.000000 0.000000 0.000000 27.352577 -21.601815 9.009097 -74.665237 0.048229 -27.842496 72.325570 1.926015 -6.664065 -18.332395 -5.846531 22.781478 0.000000 0.000000 0.000000 26.985007 -22.186959 9.442705 -0.412995 -0.682224 -1.086985 15.197929 3.100470 -1.158503 9.561131 1.911836 -1.403839 0.000000 0.000000 0.000000 8.435501 1.270702 -1.057369 -3.567756 0.762984 -3.087118 0.000000 0.000000 0.000000 7.948149 1.647794 -1.139488 4.225840 -5.665513 10.047716 -56.496927 2.085615 -64.669194 1.061974 -82.305555 0.673289 0.000000 0.000000 0.000000 9.271406 1.709366 -1.183065 3.887986 12.732744 2.487858 -41.911383 12.885823 47.782470 -178.487473 85.445981 179.298449 0.000000 0.000000 0.000000 
-2.577177 73.504021 6.578388 0.000000 0.000000 0.000000 27.425691 -23.107725 9.553336 -81.969373 -6.360432 23.322396 65.108833 -4.535486 6.833172 -1.984827 1.742778 -21.961348 0.000000 0.000000 0.000000 27.724272 -21.829215 9.129486 -74.405943 -0.608785 -27.781745 71.725360 2.037499 -7.002218 -18.077528 -5.679491 22.436611 0.000000 0.000000 0.000000 27.250085 -22.252080 9.505882 -0.461253 -0.707358 -0.970358 15.269754 2.906677 -1.101258 9.418056 1.889491 -1.359473 0.000000 0.000000 0.000000 8.332698 1.239964 -1.040719 -3.380961 0.843971 -3.048469 0.000000 0.000000 0.000000 7.839672 1.589235 -1.116906 4.115052 -5.507933 8.955453 -55.056212 2.665389 -65.296697 0.920726 -83.754047 0.531169 0.000000 0.000000 0.000000 9.229951 1.686574 -1.129076 3.685784 12.562968 3.330823 -39.902488 13.639504 48.203855 -179.790209 82.437938 -179.422062 0.000000 0.000000 0.000000 
-2.683090 73.658279 6.619652 0.000000 0.000000 0.000000 27.654483 -23.320124 9.575906 -81.790395 -6.244044 23.188188 65.100206 -4.254264 7.065718 -2.527505 1.908188 -21.813341 0.000000 0.000000 0.000000 28.061836 -22.090645 9.203147 -74.551330 -0.955107 -27.473073 71.604220 2.150906 -7.343061 -17.899071 -5.383026 22.185834 0.000000 0.000000 0.000000 27.600620 -22.435674 9.594867 -0.470808 -0.695480 -0.893348 15.453855 2.654995 -1.017200 9.302832 1.775211 -1.257051 0.000000 0.000000 0.000000 8.195501 1.114533 -0.955773 -3.233988 0.949850 -3.005158 0.000000 0.000000 0.000000 7.803258 1.423806 -1.053875 4.010797 -5.437341 7.944961 -53.313441 3.207677 -65.811591 1.429561 -85.832610 1.066955 0.000000 0.000000 0.000000 9.187585 1.549443 -1.057086 3.616073 12.316059 3.775504 -38.176239 14.648990 48.835183 179.631530 79.561383 -178.922024 0.000000 0.000000 0.000000 
-2.808774 73.660011 6.630722 0.000000 0.000000 0.000000 27.876405 -23.538384 9.587413 -81.627850 -6.180218 23.123373 65.291288 -4.078526 7.340538 -3.330294 2.042928 -21.941100 0.000000 0.000000 0.000000 28.353884 -22.361667 9.253553 -74.888721 -1.084067 -26.980960 71.734704 2.235482 -7.639344 -17.940486 -5.069407 21.915248 0.000000 0.000000 0.000000 27.983089 -22.682252 9.698351 -0.458521 -0.703924 -0.905779 15.656605 2.398302 -0.962842 9.197265 1.610285 -1.141355 0.000000 0.000000 0.000000 8.061869 0.938950 -0.845518 -3.126403 1.062767 -2.956337 0.000000 0.000000 0.000000 7.823392 1.209797 -0.969655 3.923051 -5.405446 6.977015 -51.303624 3.470170 -66.175934 4.663290 -88.154745 4.333058 0.000000 0.000000 0.000000 9.130354 1.351695 -0.988366 3.641767 12.091100 3.979887 -36.441180 15.560404 49.539147 179.334745 76.431961 -178.763563 0.000000 0.000000 0.000000 
